  <svg data-v-38cac92c="" data-v-0c5f3dd6="" xmlns="http://www.w3.org/2000/svg" viewBox="0 0 530.57 368.53" class="ninja-svg h-32 lg:h-56 mx-auto lg:mx-0 transform -translate-y-12 md:-translate-y-24 -translate-x-8 md:-translate-x-24 md:scale-75 relative z-20" style="transform: translate(0rem, -4rem);">
            <defs data-v-38cac92c=""></defs>
            <title data-v-38cac92c="">Ninja 1</title>
            <g data-v-38cac92c="" id="Layer_2" data-name="Layer 2">
                <g data-v-38cac92c="" id="Layer_1-2" data-name="Layer 1">
                    <path data-v-38cac92c="" d="M1.12,108.75,8.48,96.16a8.19,8.19,0,0,1,11.21-2.94l81.9,47.86L86,167.82,4.06,120A8.2,8.2,0,0,1,1.12,108.75Z" class="cls-1"></path>
                    <path data-v-38cac92c="" d="M305.45,260.26a1.11,1.11,0,0,1,0,1.91L285,274.9c-5.07,3.43-8.42,4.32-12.33,2L92.41,171.59,108,144.85,288.32,250.2Z" class="cls-2"></path>
                    <polygon data-v-38cac92c="" points="34.21 101.71 33.1 108.85 38.77 104.37 40.28 105.25 38.07 119.38 30.52 125.34 29.08 134.58 18.55 128.43 23.69 95.56 34.21 101.71" class="cls-3"></polygon>
                    <polygon data-v-38cac92c="" points="72.23 159.79 68.29 157.49 73.19 153.62 72.23 159.79" class="cls-3"></polygon>
                    <polygon data-v-38cac92c="" points="36.11 131.95 35.14 138.12 31.2 135.82 36.11 131.95" class="cls-3"></polygon>
                    <polygon data-v-38cac92c="" points="74.19 160.94 79.32 128.07 89.84 134.22 88.73 141.36 94.4 136.88 101.59 141.08 96.62 149.59 86.15 157.85 84.71 167.09 74.19 160.94" class="cls-3"></polygon>
                    <polygon data-v-38cac92c="" points="16.6 127.28 12.66 124.98 17.56 121.11 16.6 127.28" class="cls-3"></polygon>
                    <polygon data-v-38cac92c="" points="52.76 112.55 51.64 119.69 57.32 115.21 58.82 116.09 56.61 130.22 49.06 136.18 47.62 145.41 37.1 139.26 42.23 106.4 52.76 112.55" class="cls-3"></polygon>
                    <polygon data-v-38cac92c="" points="71.3 123.38 70.19 130.53 75.86 126.05 77.37 126.92 75.16 141.05 67.61 147.01 66.17 156.25 55.64 150.1 60.78 117.23 71.3 123.38" class="cls-3"></polygon>
                    <polygon data-v-38cac92c="" points="54.65 142.78 53.69 148.96 49.75 146.66 54.65 142.78" class="cls-3"></polygon>
                    <rect data-v-38cac92c="" x="71.32" y="152.6" width="51.36" height="7.46" transform="translate(280.92 151.46) rotate(120.3)" class="cls-4"></rect>
                    <path data-v-38cac92c="" d="M237.71,350.78S352.41,381,370.28,362.56s15.74-46-10-55.38-86.35-20.82-86.35-20.82Z" class="cls-5"></path>
                    <path data-v-38cac92c="" d="M375.1,342.63C358,360.28,252.42,333.41,243.24,331l-5.16,9.17S352.78,370.44,370.65,352a42.1,42.1,0,0,0,9.94-16.28A45.17,45.17,0,0,1,375.1,342.63Z" class="cls-6"></path>
                    <path data-v-38cac92c="" d="M480.89,249c10.46-6.71,19.89-15.37,23.14-15.79,11-1.42,17.58-1.72,18.84-.12,6,7.72,12.25,44.22,3,47.44-4.08,1.41-17.92,1.62-22.14,2.52a109.46,109.46,0,0,1-19.81.73C481,272.29,480.89,249,480.89,249Z" class="cls-5"></path>
                    <path data-v-38cac92c="" d="M415.12,251l65.77-2s10.68,17.7,3,34.78l-66.26,18.13Z" class="cls-5"></path>
                    <path data-v-38cac92c="" d="M311.89,249.27l111.18-9.64a9.65,9.65,0,0,1,5.05.93c7,3.47,21.26,16.68,10.22,54.57a9.46,9.46,0,0,1-8.65,6.43l-107,8.22a9.87,9.87,0,0,1-10.22-7.63l-9.43-40.82A9.87,9.87,0,0,1,311.89,249.27Z" class="cls-5"></path>
                    <path data-v-38cac92c="" d="M428.87,258.32a9.65,9.65,0,0,0-5.05-.93L312.65,267a9.85,9.85,0,0,0-8.26,6l-1-4.34a9.87,9.87,0,0,1,8.82-12.06l111.17-9.64a9.56,9.56,0,0,1,5.05.94c5.39,2.67,12,11.34,11.09,32.5C437.49,266.71,433.27,260.51,428.87,258.32Z" class="cls-6"></path>
                    <path data-v-38cac92c="" d="M501.93,235.77s.78,17.41,6.21,44.2l-20-.71s2.85-16.43-5-30C483.15,249.25,497.24,238.47,501.93,235.77Z" class="cls-7"></path>
                    <path data-v-38cac92c="" d="M342.72,223.05s12.22-.67,18.12-9.13,36.92-45.15,20.13-39.39c-12.16,4.17-19.09-15.15-26.75-13.3C342.68,164,309.64,212.87,342.72,223.05Z" class="cls-8"></path>
                    <path data-v-38cac92c="" d="M365.82,188.92c1.15,10.82-4.66,22.05-13.62,28-17.65,11.76-51.27,32.18-59.07,22.82-10.71-12.84-11.44-27.14-2-35.54S340.75,179,340.75,179,363.68,168.78,365.82,188.92Z" class="cls-5"></path>
                    <path data-v-38cac92c="" d="M346.27,242.78s19.66-12.58,18.88-7.56C347,351.19,216.44,365.55,219.49,348.29c.9-5.07,12.36-16.47,12.36-16.47S301,326.57,346.27,242.78Z" class="cls-4"></path>
                    <path data-v-38cac92c="" d="M297.73,171.4C327.32,185.52,338.54,246.18,334,258c-13.5,35-84.45,75-100.4,72.9-1.52-.2-59.07-41.2-61.67-70.57-.86-9.73,2.64-19.69,7.23-28.79,13.3-26.37,40.5-48,68-58.29C265.92,166.19,283.46,164.59,297.73,171.4Z" class="cls-7"></path>
                    <path data-v-38cac92c="" d="M334.62,259.89c3.27,8-11,15.63-11.86,24-15.3-17.8-44.32-46.91-141.47-38.07,0,0-6.27-11.53,5.89-23.32,19.14-4.86,60.35-7.7,101.13,5.08,32.18,10.07,46,23.75,49.39,26.56C347.22,262.05,331.3,251.77,334.62,259.89Z" class="cls-9"></path>
                    <path data-v-38cac92c="" d="M228.46,325.78c15.43-.2,40-11.68,63.71-31,21.21-17.3,36.41-36.59,41.72-51.26.2-.56.91-5.17-2.61-18.81-.14-.56,1.73-.13,2.05.27l14.92,18.29c9.8,12-8.63,43.26-41.17,69.8s-66.85,38.3-76.65,26.29l-14.91-18.29s-.37-1.22,1-2.88C216.5,318.2,225.85,325.81,228.46,325.78Z" class="cls-9"></path>
                    <path data-v-38cac92c="" d="M166.17,167.5c-19.44,21.1,14.21,75.34,90.13,79.74s61.55-62.52,61.55-62.52S192,139.44,166.17,167.5Z" class="cls-1"></path>
                    <path data-v-38cac92c="" d="M173.24,165.4c-18.37,19.93,13.43,71.18,85.16,75.33s58.14-59.07,58.14-59.07S197.68,138.89,173.24,165.4Z" class="cls-5"></path>
                    <path data-v-38cac92c="" d="M173.59,162.34c-17.47,16.6,14.3,60.67,84,65.47s55.37-49.1,55.37-49.1S196.83,140.28,173.59,162.34Z" class="cls-1"></path>
                    <path data-v-38cac92c="" d="M308.19,24.33s37.26,39.06,37,95.87c-.33,82.47-79.45,97.7-79.45,97.7L263.84,41.44S271.06,19,308.19,24.33Z" class="cls-4"></path>
                    <path data-v-38cac92c="" d="M302.18,26.11s37.26,39.06,37,95.88c-.33,82.46-79.46,97.7-79.46,97.7L257.84,43.22S265.06,20.77,302.18,26.11Z" class="cls-1"></path>
                    <polygon data-v-38cac92c="" points="319.62 165.69 327.51 153.59 324 135.34 317.24 165.37 319.62 165.69" class="cls-7"></polygon>
                    <path data-v-38cac92c="" d="M156.34,160.64S141.92,115.45,155,53.57C158.61,36.3,209.56.41,227.93,0c46.88-1,75.8,23.65,75.8,23.65l-30.67,3.54Z" class="cls-7"></path>
                    <path data-v-38cac92c="" d="M324.84,112.57s4.07,31.34-7.6,52.8c0,0-21.06,27.77-46.52,26.95s-84-19.4-100.87-50.35,18.46-40.55,18.46-40.55Z" class="cls-10"></path>
                    <path data-v-38cac92c="" d="M324.84,112.57s4.07,31.34-7.6,52.8c0,0-21.06,27.77-46.52,26.95s-84-19.4-100.87-50.35,18.46-40.55,18.46-40.55Z" class="cls-8"></path>
                    <path data-v-38cac92c="" d="M322.42,170.16s-10.22-13-33.4-15.38q-.76,7.77-1.88,15.67a336.53,336.53,0,0,1-12.34,54.07C312.37,220,322.42,170.16,322.42,170.16Z" class="cls-5"></path>
                    <path data-v-38cac92c="" d="M179.84,142.2S258,206.52,327.51,153.59l-5.09,16.57-121.16,15S167.78,165,179.84,142.2Z" class="cls-5"></path>
                    <path data-v-38cac92c="" d="M177.26,138.68s9.4,52.19,57.34,67.57c0,0-37.2,10.94-66.76-25.91C167.84,180.34,161.56,155.56,177.26,138.68Z" class="cls-7"></path>
                    <path data-v-38cac92c="" d="M289,154.78c-2.16-.22-4.39-.39-6.77-.41-28-.24-81,30.78-81,30.78s29.66,41.41,70.08,39.66c1.18-.05,2.33-.16,3.46-.29C283.39,220.44,295.79,173.45,289,154.78Z" class="cls-7"></path>
                    <path data-v-38cac92c="" d="M292.09,138.6c15.34-.93,29.87-13,37.73-19.82,0,0-6.4-60.8-47.63-90.24C282.19,28.54,298.05,63.09,292.09,138.6Z" class="cls-5"></path>
                    <path data-v-38cac92c="" d="M186.17,116.27s61.25,25,105.92,22.33c10.89-77.42-9.9-110.06-9.9-110.06S225.1,35.47,186.17,116.27Z" class="cls-7"></path>
                    <path data-v-38cac92c="" d="M286.49,37.71a54,54,0,0,0-4.3-9.17s-57.05,6.6-95.7,85.51a395.17,395.17,0,0,0,48.09,15.14c-12-7.38-28.79-24-3.92-51.61A155,155,0,0,1,286.49,37.71Z" class="cls-5"></path>
                    <path data-v-38cac92c="" d="M306.55,17.27l1.64,7.06S188.85,60.93,181.8,180c-.13,2.23-.31,13.91,36.26,25.9,2.23.73-19.86.55-36.57-12l-30.3-29h0a73.22,73.22,0,0,1,1.41-27.78C161.06,102.84,185.22,28.23,281,4Z" class="cls-4"></path>
                    <path data-v-38cac92c="" d="M271.29,224c-24.93-3.59-43-21.15-40.42-39.22,1.19-8.31,6.59-15.25,14.47-20a378.3,378.3,0,0,0-41.93,20.68s29.66,41.42,70.09,39.66c1.18-.05,2.32-.16,3.45-.29.12-.06.25-.2.36-.27C275.33,224.46,273.32,224.31,271.29,224Z" class="cls-5"></path>
                    <path data-v-38cac92c="" d="M146.81,158.24c-.59-7.91-19.26-15.8-27.17-16.32C106.16,141.05,70.3,163.4,76,173.76s36,23.06,36,23.06S147.79,171.19,146.81,158.24Z" class="cls-8"></path>
                    <path data-v-38cac92c="" d="M97.05,169.91c4.6-12.76,36.11-28.61,43.55-11.48,45.06,103.69,98.35,72.11,88.73,109.85C215.16,323.9,69.69,245.84,97.05,169.91Z" class="cls-4"></path>
                    <polygon data-v-38cac92c="" points="253.94 144.39 252.43 149.04 215.92 138.24 216.27 129.26 253.94 144.39" class="cls-1"></polygon>
                    <polygon data-v-38cac92c="" points="298.13 141.78 299.43 145.63 321.6 137.07 321.97 129.26 298.13 141.78" class="cls-1"></polygon>
                    <ellipse data-v-38cac92c="" cx="328.9" cy="269.41" rx="17.94" ry="19.81" transform="translate(-10.3 13.09) rotate(-2.24)" class="cls-11"></ellipse>
                    <g data-v-38cac92c="" class="cls-12">
                        <path data-v-38cac92c="" d="M313.21,263.33c-.9,5.85,1.32,12.64,6.29,17.51s11.33,6.51,16.48,4.84a15.38,15.38,0,0,1-18-2.94A19.58,19.58,0,0,1,313.21,263.33Z" class="cls-13"></path>
                    </g>
                    <path data-v-38cac92c="" d="M329,273.15s0,0,0,.05,0,0,0-.05h0" class="cls-14"></path>
                    <path data-v-38cac92c="" d="M327.61,267l-2.7.39-3.21,4.32a5.43,5.43,0,0,0-.62,4.32,5.29,5.29,0,0,0,3.75,3.57,6.43,6.43,0,0,0,3.94,0,7,7,0,0,0,3-1.93l.85-1.14a1.42,1.42,0,0,0,.08-.18.25.25,0,0,1-.09,0,.75.75,0,0,0-.3-.09c-.28,0-.58,0-.84-.11a1,1,0,0,0-.57-.11.73.73,0,0,1-.74-.46c0-.05,0-.12-.1-.15a1.75,1.75,0,0,0-.93-.18,8.3,8.3,0,0,0-1.54.54,1.74,1.74,0,0,0-.57.52.47.47,0,0,0-.05.1.42.42,0,0,1-.31.28,2.39,2.39,0,0,1-.95.17c-.2,0-.42.11-.6,0l-.44-.25a2.41,2.41,0,0,1-.3-.37c-.13-.32-.35-.61-.24-1a.27.27,0,0,0-.09-.33.31.31,0,0,1-.13-.25,1.57,1.57,0,0,1,0-.57c.09-.06.22-.13.24-.24a2.56,2.56,0,0,1,.51-1c.15-.21.23-.23.39-.05s.19.07.29,0a.61.61,0,0,1,.3-.2.8.8,0,0,0,.35-.19c.07,0,.06-.09,0-.15s-.1-.25.08-.37.24-.19.36-.28.2-.41.41-.57a3.8,3.8,0,0,1,1.12-.07l.2-.3-.58-.35,1-1.42c.55-1.78-1-1.83-1-1.83" class="cls-14"></path>
                    <path data-v-38cac92c="" d="M328.92,275h0" class="cls-14"></path>
                    <path data-v-38cac92c="" d="M328.9,275h0Z" class="cls-14"></path>
                    <path data-v-38cac92c="" d="M326.71,260.1l.16-.23a.77.77,0,0,0,.94-.12l.94-1.26a2.39,2.39,0,0,1,2.57-.7,1.77,1.77,0,0,1,1.15,1.95,3.77,3.77,0,0,1-.46,1.05l-1.26,1.71Z" class="cls-14"></path>
                    <path data-v-38cac92c="" d="M335.21,265.14l.17-.22a.75.75,0,0,0,.93-.13l.95-1.25a2.39,2.39,0,0,1,2.57-.71,1.78,1.78,0,0,1,1.15,2,4.18,4.18,0,0,1-.46,1l-1.27,1.71Z" class="cls-14"></path>
                    <path data-v-38cac92c="" d="M325,267.29l-2.05,2.76a2.27,2.27,0,0,1,2.53-.58l2.43,1.43c.35,0,.68,0,1,0a1.94,1.94,0,0,0,.63-.11.38.38,0,0,1,.36,0,.19.19,0,0,0,.26-.14c.05-.17.12-.33.18-.5s.13-.16.23-.06a1.49,1.49,0,0,1,.52.79c.08.33.12.67.2,1a.57.57,0,0,0,.29.46,4.3,4.3,0,0,1,.83.35.44.44,0,0,1,.21.54.4.4,0,0,0,.09.46,2.27,2.27,0,0,0,2.36-.6,1.82,1.82,0,0,0-.43-2.83l-6.1-3.62a3.33,3.33,0,0,0-3.57.65" class="cls-14"></path>
                    <path data-v-38cac92c="" d="M322.77,261.87a1.78,1.78,0,0,1-.13-2.61,2.28,2.28,0,0,1,2.69-.52l4.21,2.5a2.08,2.08,0,0,0,2.51-.51l-1,1.39,7.14,4.23a2.29,2.29,0,0,0,2.39-.58l-2.28,3.11a2.64,2.64,0,0,1-2.84.54c-1.44-.54-12.66-7.55-12.66-7.55" class="cls-14"></path>
                    <path data-v-38cac92c="" d="M177.22,287.9c6.78,11.7,17.47,27.12,36.94,35.88C214.16,323.78,186.58,319.88,177.22,287.9Z" class="cls-15"></path>
                    <path data-v-38cac92c="" d="M189,316.82c5.71,5.36,14.23,12.14,26.5,13.75C215.48,330.57,199.52,333,189,316.82Z" class="cls-15"></path>
                </g>
            </g>
        </svg>