<?xml version="1.0" standalone="no"?>
<!DOCTYPE svg PUBLIC "-//W3C//DTD SVG 20010904//EN"
 "http://www.w3.org/TR/2001/REC-SVG-20010904/DTD/svg10.dtd">
<svg version="1.0" xmlns="http://www.w3.org/2000/svg"
 width="244.000000pt" height="244.000000pt" viewBox="0 0 244.000000 244.000000"
 preserveAspectRatio="xMidYMid meet">
<metadata>
Created by potrace 1.14, written by Peter Selinger 2001-2017
</metadata>
<g transform="translate(0.000000,244.000000) scale(0.100000,-0.100000)"
fill="#000000" stroke="none">
<path d="M1093 2157 c-2 -4 -1 -7 4 -6 21 4 46 -2 39 -8 -10 -11 -66 -11 -66
-1 0 4 -4 8 -10 8 -5 0 -9 -5 -7 -12 1 -7 -9 -13 -23 -13 -14 -1 -32 -4 -40
-8 -8 -4 -24 -8 -35 -10 -11 -2 -36 -10 -55 -19 -24 -10 -39 -12 -48 -5 -9 7
-11 6 -7 -6 7 -17 -27 -33 -46 -21 -7 4 -9 3 -5 -4 3 -6 1 -14 -5 -18 -6 -3
-15 0 -20 7 -7 12 -10 12 -21 0 -11 -11 -11 -13 1 -6 9 5 12 3 10 -4 -3 -7 -9
-12 -14 -12 -6 0 -14 -7 -18 -15 -5 -8 -13 -12 -18 -9 -5 4 -6 11 -3 17 4 7 2
8 -4 4 -6 -4 -9 -13 -6 -20 3 -8 0 -17 -7 -22 -8 -5 -10 -3 -4 7 4 8 -3 4 -16
-9 -13 -13 -52 -50 -86 -82 -34 -33 -74 -75 -89 -95 -17 -23 -33 -34 -42 -30
-11 4 -12 2 -4 -8 9 -10 9 -16 0 -25 -8 -8 -15 -7 -25 6 -11 15 -12 13 -3 -10
6 -18 6 -28 0 -28 -6 0 -9 -3 -9 -7 3 -21 -2 -33 -12 -28 -6 4 -9 0 -7 -11 2
-11 -2 -18 -9 -17 -7 2 -10 -6 -8 -17 2 -11 -2 -25 -9 -32 -7 -7 -11 -19 -8
-26 2 -6 -1 -12 -7 -12 -6 0 -10 -4 -8 -9 1 -5 -7 -17 -18 -25 -16 -13 -17
-15 -2 -10 9 3 17 3 17 -1 0 -4 -8 -14 -18 -22 -9 -8 -11 -12 -4 -8 6 3 12 1
12 -4 0 -6 -4 -11 -9 -11 -5 0 -9 -6 -8 -12 1 -41 -4 -68 -13 -63 -6 3 -7 -1
-4 -9 4 -10 1 -16 -7 -16 -11 0 -12 -2 -1 -9 21 -13 9 -66 -14 -64 -18 1 -18
1 -1 -12 23 -17 30 -65 10 -65 -11 0 -11 -4 3 -17 11 -11 13 -18 5 -21 -7 -2
-8 -9 -1 -23 6 -10 8 -31 6 -46 -3 -16 0 -30 7 -35 9 -6 9 -12 -1 -29 -8 -11
-9 -18 -4 -15 6 3 15 -8 21 -26 13 -38 14 -41 1 -33 -5 3 -10 2 -10 -3 0 -6 6
-12 14 -15 8 -3 17 -21 21 -39 4 -18 14 -43 22 -55 9 -13 12 -23 8 -23 -4 0
-2 -7 5 -15 7 -8 10 -15 6 -15 -3 0 3 -9 14 -20 12 -12 18 -25 15 -30 -4 -6
-1 -10 4 -10 6 0 11 -7 11 -15 0 -8 3 -15 8 -15 4 0 13 -9 20 -21 11 -17 11
-24 0 -37 -11 -15 -11 -15 3 -5 13 10 21 6 51 -27 19 -22 33 -42 30 -45 -3 -3
0 -5 7 -5 7 0 9 -5 6 -10 -4 -6 -1 -9 6 -8 7 2 18 -8 26 -22 7 -14 13 -19 13
-11 0 8 16 -1 39 -22 40 -36 160 -109 199 -121 12 -4 22 -12 22 -17 0 -6 4 -8
8 -5 5 3 20 -1 35 -9 14 -7 27 -11 30 -9 9 9 67 -19 60 -29 -4 -8 -1 -8 9 0
12 10 24 10 59 0 24 -7 68 -12 96 -12 29 0 53 -3 53 -7 0 -5 -5 -8 -12 -8 -6
0 -8 -3 -5 -6 4 -4 14 -1 23 7 21 17 107 22 97 6 -5 -8 -2 -8 9 0 8 7 18 10
21 6 4 -3 7 0 7 8 0 11 2 11 10 -1 8 -12 10 -12 10 -1 0 8 7 11 20 8 10 -3 20
-2 22 2 2 5 18 11 36 14 24 5 31 3 27 -6 -4 -6 0 -4 9 7 8 10 19 15 25 11 6
-3 11 -2 11 2 0 16 57 32 70 19 8 -8 10 -7 5 6 -5 14 -2 16 15 13 13 -2 20 -2
17 2 -8 7 23 32 41 33 8 0 10 -5 6 -12 -4 -8 -3 -10 2 -5 5 5 9 14 9 20 0 7
10 12 22 11 15 0 19 4 15 15 -4 10 -1 13 12 8 10 -4 15 -3 11 3 -6 9 8 14 28
11 5 -1 6 2 3 7 -3 5 7 20 22 33 20 18 23 19 12 4 -8 -11 16 12 53 50 38 39
66 62 63 52 -4 -11 -2 -16 5 -12 5 4 7 16 3 27 -5 16 -3 20 10 15 8 -3 18 -1
22 5 4 7 3 8 -4 4 -20 -12 -13 19 7 34 11 7 18 17 15 22 -3 4 -1 8 5 8 5 0 12
-6 15 -12 3 -7 3 -3 1 9 -3 12 -1 24 5 28 6 3 8 10 5 15 -3 5 4 15 15 23 11 7
17 17 14 20 -4 4 -2 12 3 19 6 7 18 36 28 63 10 28 22 55 27 61 4 6 5 14 2 17
-4 4 1 18 10 32 9 14 12 25 7 25 -9 0 7 53 23 79 7 10 6 12 -4 6 -10 -6 -11
-4 -5 11 9 23 10 187 1 202 -3 6 -2 13 4 17 5 3 10 12 10 18 0 7 -4 6 -10 -3
-8 -13 -10 -13 -10 2 0 9 6 19 13 21 7 3 4 6 -6 6 -10 1 -15 5 -12 11 3 5 -1
30 -9 55 -9 24 -13 52 -9 61 4 12 3 15 -5 10 -11 -7 -17 18 -13 52 1 6 -2 12
-8 12 -5 0 -18 18 -29 40 -10 22 -15 37 -11 34 5 -3 9 0 9 5 0 6 -6 11 -14 11
-8 0 -18 10 -22 23 -4 12 -15 33 -25 46 -10 13 -16 27 -13 32 3 5 2 9 -3 8
-20 -3 -27 2 -13 11 13 8 13 10 -2 10 -10 0 -22 9 -28 20 -10 19 -6 24 13 21
5 -1 5 4 2 10 -5 8 -10 8 -18 0 -18 -18 -29 -12 -22 12 5 17 4 19 -4 7 -8 -11
-11 -12 -11 -2 0 7 -4 10 -10 7 -5 -3 -10 -2 -10 4 0 5 3 11 8 14 4 2 2 3 -4
1 -6 -1 -28 14 -50 33 -21 19 -30 29 -19 22 18 -13 19 -13 6 3 -7 10 -17 15
-22 12 -5 -3 -27 8 -48 25 -21 17 -44 31 -50 31 -6 0 -11 5 -11 10 0 6 -7 10
-15 10 -8 0 -15 5 -15 10 0 6 -9 10 -20 10 -11 0 -20 5 -20 11 0 5 -5 7 -12 3
-8 -5 -9 -2 -4 11 5 15 4 16 -8 6 -10 -8 -20 -9 -33 -2 -31 17 -71 29 -105 33
-14 2 -15 5 -5 17 10 12 9 13 -10 3 -28 -15 -36 -15 -27 1 6 9 5 9 -7 0 -12
-10 -20 -9 -39 4 -13 9 -20 12 -17 6 8 -12 -11 -12 -30 0 -8 5 -13 3 -13 -3 0
-6 -5 -8 -10 -5 -6 4 -8 10 -5 15 3 5 1 12 -5 15 -6 4 -9 1 -8 -7 2 -10 -13
-13 -62 -13 -38 0 -64 4 -63 10 2 12 -47 14 -54 2z"/>
<path d="M1215 2160 c-3 -5 -1 -10 4 -10 6 0 11 5 11 10 0 6 -2 10 -4 10 -3 0
-8 -4 -11 -10z"/>
<path d="M1510 2126 c0 -2 7 -7 16 -10 8 -3 12 -2 9 4 -6 10 -25 14 -25 6z"/>
<path d="M478 1813 c7 -3 16 -2 19 1 4 3 -2 6 -13 5 -11 0 -14 -3 -6 -6z"/>
<path d="M2173 1713 c15 -4 17 -12 14 -39 -3 -19 -1 -37 4 -40 5 -3 9 13 9 35
0 22 5 42 13 44 6 3 -4 5 -23 5 -19 0 -27 -2 -17 -5z"/>
<path d="M2232 1673 c-1 -33 1 -43 7 -33 6 8 7 18 5 22 -3 4 0 8 5 8 6 0 11
-9 11 -20 0 -11 5 -20 10 -20 14 0 13 11 -5 54 -21 49 -31 45 -33 -11z"/>
<path d="M2286 1698 c-9 -34 -7 -45 4 -28 8 12 10 9 10 -13 0 -16 4 -26 9 -23
5 4 8 14 6 24 -2 9 -4 27 -4 40 -1 12 -5 22 -10 22 -5 0 -11 -10 -15 -22z"/>
<path d="M350 1676 c0 -2 8 -10 18 -17 15 -13 16 -12 3 4 -13 16 -21 21 -21
13z"/>
<path d="M2070 1640 c0 -5 5 -10 11 -10 5 0 7 5 4 10 -3 6 -8 10 -11 10 -2 0
-4 -4 -4 -10z"/>
<path d="M2073 1595 c0 -8 4 -12 9 -9 5 3 6 10 3 15 -9 13 -12 11 -12 -6z"/>
<path d="M2153 1295 c0 -8 4 -12 9 -9 5 3 6 10 3 15 -9 13 -12 11 -12 -6z"/>
<path d="M2119 973 c-13 -16 -12 -17 4 -4 16 13 21 21 13 21 -2 0 -10 -8 -17
-17z"/>
<path d="M2082 858 c-7 -7 -12 -17 -12 -22 0 -6 5 -3 11 7 6 9 15 14 21 11 7
-4 8 -2 4 4 -9 15 -9 15 -24 0z"/>
<path d="M430 696 c0 -2 8 -10 18 -17 15 -13 16 -12 3 4 -13 16 -21 21 -21 13z"/>
<path d="M470 626 c0 -2 7 -7 16 -10 8 -3 12 -2 9 4 -6 10 -25 14 -25 6z"/>
<path d="M1870 550 c-9 -6 -10 -10 -3 -10 6 0 15 5 18 10 8 12 4 12 -15 0z"/>
<path d="M775 380 c3 -5 8 -10 11 -10 2 0 4 5 4 10 0 6 -5 10 -11 10 -5 0 -7
-4 -4 -10z"/>
<path d="M820 366 c0 -2 8 -10 18 -17 15 -13 16 -12 3 4 -13 16 -21 21 -21 13z"/>
<path d="M1027 299 c7 -7 15 -10 18 -7 3 3 -2 9 -12 12 -14 6 -15 5 -6 -5z"/>
<path d="M1246 282 c-3 -5 1 -9 9 -9 8 0 12 4 9 9 -3 4 -7 8 -9 8 -2 0 -6 -4
-9 -8z"/>
<path d="M1390 286 c0 -2 7 -7 16 -10 8 -3 12 -2 9 4 -6 10 -25 14 -25 6z"/>
</g>
</svg>
